General
Complete name                            : [Ani] DC - Justice league doom [ATG 2012] 720p.mp4
Format                                   : MPEG-4
Format profile                           : Base Media
Codec ID                                 : isom
File size                                : 783 MiB
Duration                                 : 1h 16mn
Overall bit rate mode                    : Variable
Overall bit rate                         : 1 425 Kbps

Video
ID                                       : 1
Format                                   : AVC
Format/Info                              : Advanced Video Codec
Format profile                           : High@L4.0
Format settings, CABAC                   : Yes
Format settings, ReFrames                : 7 frames
Codec ID                                 : avc1
Codec ID/Info                            : Advanced Video Coding
Duration                                 : 1h 16mn
Bit rate                                 : 1 200 Kbps
Maximum bit rate                         : 12.8 Mbps
Width                                    : 1 280 pixels
Height                                   : 720 pixels
Display aspect ratio                     : 16:9
Frame rate mode                          : Constant
Frame rate                               : 23.976 fps
Color space                              : YUV
Chroma subsampling                       : 4:2:0
Bit depth                                : 8 bits
Scan type                                : Progressive
Bits/(Pixel*Frame)                       : 0.054
Stream size                              : 659 MiB (84%)
Writing library                          : x264 core 122 r2183 c522ad1

Audio
ID                                       : 2
Format                                   : AAC
Format/Info                              : Advanced Audio Codec
Format profile                           : LC
Codec ID                                 : 40
Duration                                 : 1h 16mn
Bit rate mode                            : Variable
Bit rate                                 : 221 Kbps
Maximum bit rate                         : 298 Kbps
Channel(s)                               : 6 channels
Channel positions                        : Front: L C R, Side: L R, LFE
Sampling rate                            : 48.0 KHz
Compression mode                         : Lossy
Stream size                              : 122 MiB (16%)
